<?xml version="1.0" encoding="iso-8859-1"?>
<!-- Uploaded to: SVG Repo, www.svgrepo.com, Generator: SVG Repo Mixer Tools -->
<svg fill="#000000" height="800px" width="800px" version="1.1" id="Layer_1" xmlns="http://www.w3.org/2000/svg" xmlns:xlink="http://www.w3.org/1999/xlink" 
	 viewBox="0 0 512.025 512.025" xml:space="preserve">
<g>
	<g>
		<path d="M437.333,213.346c5.888,0,10.667-4.779,10.667-10.667v-128c0-29.397-23.936-53.333-53.333-53.333H53.333
			C23.936,21.346,0,45.282,0,74.679v362.667c0,29.397,23.936,53.333,53.333,53.333h341.333c29.397,0,53.333-23.936,53.333-53.333
			v-64c0-5.888-4.779-10.667-10.667-10.667c-5.888,0-10.667,4.779-10.667,10.667v64c0,17.643-14.357,32-32,32H53.333
			c-17.643,0-32-14.357-32-32V128.013h405.333v74.667C426.667,208.567,431.445,213.346,437.333,213.346z M21.333,106.679v-32
			c0-17.643,14.357-32,32-32h341.333c17.643,0,32,14.357,32,32v32H21.333z"/>
	</g>
</g>
<g>
	<g>
		<circle cx="53.333" cy="74.679" r="10.667"/>
	</g>
</g>
<g>
	<g>
		<circle cx="96" cy="74.679" r="10.667"/>
	</g>
</g>
<g>
	<g>
		<circle cx="138.667" cy="74.679" r="10.667"/>
	</g>
</g>
<g>
	<g>
		<path d="M365.995,277.751l-3.157-0.533c-18.709-3.051-21.504-7.915-21.504-10.539c0-4.245,8.512-10.667,21.376-10.645
			c12.608,0,20.928,5.995,21.355,10.304c0.555,5.845,5.632,10.283,11.627,9.6c5.867-0.555,10.155-5.76,9.6-11.627
			c-1.621-16.896-19.925-29.632-42.603-29.632c-23.936,0-42.688,14.059-42.688,32c0,16.704,13.269,27.328,39.403,31.573
			l1.728-10.517l1.429,11.051c17.728,2.923,21.44,7.36,21.44,10.56c0,4.245-8.512,10.667-21.376,10.667
			c-12.608,0-20.928-6.016-21.355-10.325c-0.555-5.867-5.696-10.368-11.627-9.6c-5.867,0.555-10.155,5.76-9.6,11.627
			c1.621,16.896,19.925,29.632,42.603,29.632c23.936,0,42.688-14.059,42.688-32C405.333,292.663,392.107,282.039,365.995,277.751z"
			/>
	</g>
</g>
<g>
	<g>
		<path d="M482.688,288.034l27.2-36.288c3.541-4.715,2.581-11.392-2.133-14.933c-4.715-3.52-11.392-2.581-14.933,2.133
			l-23.467,31.296l-23.488-31.296c-3.541-4.736-10.24-5.696-14.933-2.133c-4.715,3.541-5.675,10.219-2.133,14.933l27.221,36.288
			l-27.2,36.245c-3.541,4.715-2.581,11.392,2.133,14.933c1.92,1.429,4.16,2.133,6.379,2.133c3.243,0,6.443-1.472,8.555-4.267
			l23.467-31.275l23.445,31.275c2.091,2.795,5.291,4.267,8.533,4.267c2.24,0,4.48-0.704,6.4-2.133
			c4.715-3.541,5.675-10.219,2.133-14.933L482.688,288.034z"/>
	</g>
</g>
<g>
	<g>
		<path d="M288,234.679c-5.888,0-10.667,4.779-10.667,10.667v64c0,5.888-4.779,10.667-10.667,10.667S256,315.234,256,309.346
			s-4.779-10.667-10.667-10.667s-10.667,4.779-10.667,10.667c0,17.643,14.357,32,32,32s32-14.357,32-32v-64
			C298.667,239.458,293.888,234.679,288,234.679z"/>
	</g>
</g>
</svg>